<svg width="103" height="38" viewBox="0 0 103 38" fill="none" xmlns="http://www.w3.org/2000/svg">
<path d="M95.4869 24.3165V17.4386L90.2386 8.33201H92.2996L96.3736 15.4735L100.496 8.33201H102.556L97.2603 17.4386V24.3165H95.4869Z" fill="black"/>
<path d="M89.7166 10.0095H85.8343V24.3165H84.0609V10.0095H80.1786V8.33201H89.7166V10.0095Z" fill="black"/>
<path d="M68.1846 8.33201V18.1336C68.1846 18.7407 68.1926 19.212 68.2086 19.5475C68.2406 19.883 68.3524 20.2984 68.5441 20.7937C68.7518 21.273 69.0554 21.6804 69.4548 22.0159C70.1737 22.623 71.0524 22.9265 72.0909 22.9265C73.1294 22.9265 74.0081 22.623 74.727 22.0159C75.1264 21.6804 75.422 21.273 75.6137 20.7937C75.8214 20.2984 75.9332 19.883 75.9492 19.5475C75.9812 19.212 75.9972 18.7407 75.9972 18.1336V8.33201H77.7705V18.6129C77.7705 20.2425 77.435 21.5206 76.764 22.4472C76.2688 23.1183 75.6137 23.6455 74.7989 24.0289C74.0001 24.4124 73.0974 24.6041 72.0909 24.6041C71.0844 24.6041 70.1737 24.4124 69.3589 24.0289C68.5601 23.6455 67.913 23.1183 67.4178 22.4472C66.7468 21.5206 66.4113 20.2425 66.4113 18.6129V8.33201H68.1846Z" fill="black"/>
<path d="M62.1918 24.3165L60.3226 19.8111H53.5166L51.5994 24.3165H49.6343L56.9915 7.56512L64.1569 24.3165H62.1918ZM54.2115 18.1336H59.6276L56.9435 11.735L54.2115 18.1336Z" fill="black"/>
<path d="M48.2342 8.33201V10.0095H41.7157V14.7546H48.0424V16.4321H41.7157V22.639H48.2342V24.3165H39.9424V8.33201H48.2342Z" fill="black"/>
<path d="M27.2344 8.33201H30.1102C31.7079 8.33201 32.9301 8.66752 33.7768 9.33853C34.7354 10.0734 35.2147 11.1758 35.2147 12.6457C35.2147 14.0196 34.6875 15.0661 33.633 15.785C34.6555 16.0407 35.4144 16.5599 35.9097 17.3428C36.4209 18.1096 36.6765 18.9324 36.6765 19.8111C36.6765 20.5301 36.5168 21.1931 36.1973 21.8002C35.8937 22.4073 35.5103 22.8946 35.0469 23.262C34.1523 23.965 32.8741 24.3165 31.2126 24.3165H27.2344V8.33201ZM29.0078 10.0095V15.3537H30.3499C30.5895 15.3537 30.8212 15.3457 31.0448 15.3297C31.2685 15.2978 31.5321 15.2339 31.8357 15.138C32.1552 15.0262 32.4268 14.8824 32.6505 14.7066C32.8901 14.5309 33.0898 14.2673 33.2496 13.9158C33.4094 13.5643 33.4892 13.1569 33.4892 12.6936C33.4892 12.1983 33.3934 11.7749 33.2017 11.4235C33.0099 11.056 32.7943 10.7844 32.5546 10.6087C32.315 10.4329 32.0274 10.2971 31.6919 10.2013C31.3564 10.1054 31.1007 10.0495 30.925 10.0335C30.7493 10.0175 30.5735 10.0095 30.3978 10.0095H29.0078ZM29.0078 16.9354V22.639H31.0448C32.3389 22.639 33.2736 22.4153 33.8487 21.9679C34.5517 21.4567 34.9032 20.7218 34.9032 19.7632C34.9032 18.6928 34.4478 17.9099 33.5372 17.4146C32.962 17.0951 32.0593 16.9354 30.8292 16.9354H29.0078Z" fill="black"/>
<path d="M21.4624 0V28.3155H30.2605V31.9691H21.4624V37.8256H17.6445V31.9691H0L21.4624 0ZM6.75858 28.3155H17.6445V12.1429L6.75858 28.3155Z" fill="black"/>
</svg>
