<svg width="32" height="32" viewBox="0 0 32 32" fill="none" xmlns="http://www.w3.org/2000/svg">
<rect width="32" height="32" rx="16" fill="black"/>
<path d="M20.1086 9.31633H21.5984C22.426 9.31633 23.0592 9.49014 23.4978 9.83775C23.9944 10.2185 24.2427 10.7895 24.2427 11.551C24.2427 12.2628 23.9696 12.8049 23.4233 13.1773C23.953 13.3097 24.3462 13.5787 24.6027 13.9843C24.8676 14.3816 25 14.8078 25 15.263C25 15.6354 24.9172 15.9789 24.7517 16.2934C24.5944 16.6079 24.3958 16.8604 24.1558 17.0507C23.6923 17.4149 23.0302 17.597 22.1694 17.597H20.1086V9.31633ZM21.0273 10.1854V12.9539H21.7225C21.8466 12.9539 21.9667 12.9497 22.0825 12.9414C22.1984 12.9249 22.335 12.8918 22.4922 12.8421C22.6577 12.7842 22.7984 12.7097 22.9143 12.6187C23.0385 12.5276 23.1419 12.3911 23.2247 12.209C23.3075 12.0269 23.3488 11.8158 23.3488 11.5758C23.3488 11.3192 23.2992 11.0999 23.1999 10.9178C23.1005 10.7275 22.9888 10.5868 22.8647 10.4957C22.7405 10.4047 22.5915 10.3343 22.4177 10.2847C22.2439 10.235 22.1115 10.2061 22.0205 10.1978C21.9294 10.1895 21.8384 10.1854 21.7473 10.1854H21.0273ZM21.0273 13.7732V16.7279H22.0825C22.7529 16.7279 23.2371 16.6121 23.5351 16.3803C23.8992 16.1155 24.0813 15.7348 24.0813 15.2382C24.0813 14.6836 23.8454 14.2781 23.3737 14.0215C23.0757 13.856 22.6081 13.7732 21.9708 13.7732H21.0273Z" fill="white"/>
<path d="M17.1184 5V19.6686H21.6762V21.5613H17.1184V24.5953H15.1406V21.5613H6L17.1184 5ZM9.50123 19.6686H15.1406V11.2905L9.50123 19.6686Z" fill="white"/>
</svg>
