<svg width="149" height="55" viewBox="0 0 149 55" fill="none" xmlns="http://www.w3.org/2000/svg">
<path d="M138.402 35.2451V25.2761L130.795 12.0767H133.782L139.687 22.4278L145.661 12.0767H148.649L140.972 25.2761V35.2451H138.402Z" fill="white"/>
<path d="M130.038 14.5081H124.411V35.2451H121.84V14.5081H116.213V12.0767H130.038V14.5081Z" fill="white"/>
<path d="M98.8289 12.0767V26.2834C98.8289 27.1633 98.8405 27.8465 98.8637 28.3328C98.91 28.819 99.0721 29.4211 99.3499 30.139C99.651 30.8337 100.091 31.4242 100.67 31.9105C101.712 32.7904 102.986 33.2304 104.491 33.2304C105.996 33.2304 107.27 32.7904 108.312 31.9105C108.891 31.4242 109.319 30.8337 109.597 30.139C109.898 29.4211 110.06 28.819 110.083 28.3328C110.129 27.8465 110.153 27.1633 110.153 26.2834V12.0767H112.723V26.9781C112.723 29.3401 112.237 31.1926 111.264 32.5357C110.546 33.5083 109.597 34.2725 108.416 34.8282C107.258 35.384 105.95 35.6619 104.491 35.6619C103.032 35.6619 101.712 35.384 100.531 34.8282C99.3731 34.2725 98.4353 33.5083 97.7174 32.5357C96.7448 31.1926 96.2585 29.3401 96.2585 26.9781V12.0767H98.8289Z" fill="white"/>
<path d="M90.1427 35.2453L87.4334 28.715H77.5686L74.7898 35.2453H71.9415L82.6052 10.9653L92.991 35.2453H90.1427ZM78.5759 26.2836H86.4261L82.5357 17.0093L78.5759 26.2836Z" fill="white"/>
<path d="M69.9121 12.0767V14.5081H60.4641V21.3857H69.6342V23.8172H60.4641V32.8136H69.9121V35.2451H57.8937V12.0767H69.9121Z" fill="white"/>
<path d="M39.4744 12.0767H43.6427C45.9583 12.0767 47.7298 12.563 48.9571 13.5355C50.3466 14.6008 51.0413 16.1986 51.0413 18.329C51.0413 20.3205 50.2771 21.8373 48.7487 22.8793C50.2308 23.2498 51.3307 24.0024 52.0486 25.1371C52.7896 26.2486 53.1601 27.4412 53.1601 28.7148C53.1601 29.7569 52.9285 30.7179 52.4654 31.5979C52.0254 32.4778 51.4697 33.1841 50.7981 33.7167C49.5013 34.7356 47.6488 35.2451 45.2405 35.2451H39.4744V12.0767ZM42.0448 14.5081V22.2541H43.99C44.3374 22.2541 44.6731 22.2425 44.9973 22.2194C45.3215 22.173 45.7036 22.0804 46.1436 21.9415C46.6067 21.7794 47.0004 21.571 47.3246 21.3162C47.6719 21.0615 47.9614 20.6794 48.193 20.17C48.4245 19.6605 48.5403 19.07 48.5403 18.3985C48.5403 17.6806 48.4014 17.067 48.1235 16.5575C47.8456 16.0249 47.533 15.6312 47.1857 15.3765C46.8383 15.1218 46.4215 14.925 45.9352 14.786C45.4489 14.6471 45.0784 14.566 44.8237 14.5429C44.5689 14.5197 44.3142 14.5081 44.0595 14.5081H42.0448ZM42.0448 24.5466V32.8136H44.9973C46.873 32.8136 48.2277 32.4894 49.0614 31.841C50.0803 31.1 50.5897 30.0348 50.5897 28.6454C50.5897 27.0939 49.9297 25.9592 48.6098 25.2413C47.7761 24.7782 46.4678 24.5466 44.6847 24.5466H42.0448Z" fill="white"/>
<path d="M31.1082 0V41.0413H43.8605V46.337H31.1082V54.8256H25.5745V46.337H0L31.1082 0ZM9.79609 41.0413H25.5745V17.6003L9.79609 41.0413Z" fill="white"/>
</svg>
