<svg width="26" height="26" viewBox="0 0 26 26" fill="none" xmlns="http://www.w3.org/2000/svg">
<path d="M13 25C19.6274 25 25 19.6274 25 13C25 6.37258 19.6274 1 13 1C6.37258 1 1 6.37258 1 13C1 19.6274 6.37258 25 13 25Z" stroke="black" stroke-width="1.5" stroke-miterlimit="10"/>
<path d="M4 21C4.5 19.5 8.03 15.19 13 15.19C17.97 15.19 21.42 19.25 22 21" stroke="black" stroke-width="1.5" stroke-miterlimit="10"/>
<path d="M13 13.5C14.933 13.5 16.5 11.933 16.5 10C16.5 8.067 14.933 6.5 13 6.5C11.067 6.5 9.5 8.067 9.5 10C9.5 11.933 11.067 13.5 13 13.5Z" stroke="black" stroke-width="1.5" stroke-miterlimit="10"/>
</svg>
